<svg width="25" height="24" viewBox="0 0 25 24" fill="none" xmlns="http://www.w3.org/2000/svg">
<path d="M15 3H13.5C11.8431 3 10.5 4.34315 10.5 6V15" stroke="#00FF1A" stroke-width="1.5" stroke-linecap="round" stroke-linejoin="round"/>
<path d="M21.5 9.5V15C21.5 16.6569 20.1569 18 18.5 18H14.1476" stroke="#00FF1A" stroke-width="1.5" stroke-linecap="round" stroke-linejoin="round"/>
<path d="M3.5 16L6.05055 11.7491C6.3441 11.2599 6.77108 10.8645 7.2814 10.6093L7.8666 10.3167C8.28316 10.1084 8.74249 10 9.20821 10H10.5" stroke="#00FF1A" stroke-width="1.5" stroke-linecap="round" stroke-linejoin="round"/>
<path d="M8.5 22L11.3084 20.9262C12.0836 20.6298 12.7474 20.0997 13.2078 19.4092L16.2233 14.8874C16.6586 14.2346 16.5726 13.3653 16.0178 12.8105V12.8105C15.3752 12.1679 14.3333 12.1678 13.6906 12.8103L11.5 15H9.5" stroke="#00FF1A" stroke-width="1.5" stroke-linecap="round" stroke-linejoin="round"/>
<path d="M20.0012 6.5L20.0004 2.5" stroke="#00FF1A" stroke-width="1.5" stroke-linecap="round" stroke-linejoin="round"/>
<path d="M22 4.5012L18 4.5004" stroke="#00FF1A" stroke-width="1.5" stroke-linecap="round" stroke-linejoin="round"/>
</svg>
