<svg width="25" height="24" viewBox="0 0 25 24" fill="none" xmlns="http://www.w3.org/2000/svg">
<path d="M21.5 17.5C21.5 18.8807 20.3807 20 19 20H16.5" stroke="#00FF1A" stroke-width="1.5" stroke-linecap="round" stroke-linejoin="round"/>
<path d="M3.5 8V6.5C3.5 5.11929 4.61929 4 6 4H19C20.3807 4 21.5 5.11929 21.5 6.5" stroke="#00FF1A" stroke-width="1.5" stroke-linecap="round" stroke-linejoin="round"/>
<path d="M21.5 6.5V9.5" stroke="#00FF1A" stroke-width="1.5" stroke-linecap="round" stroke-linejoin="round"/>
<path d="M21.5 14.5V17.5" stroke="#00FF1A" stroke-width="1.5" stroke-linecap="round" stroke-linejoin="round"/>
<path fill-rule="evenodd" clip-rule="evenodd" d="M20 9.5H21.5C22.0523 9.5 22.5 9.94772 22.5 10.5V13.5C22.5 14.0523 22.0523 14.5 21.5 14.5H20C18.6193 14.5 17.5 13.3807 17.5 12V12C17.5 10.6193 18.6193 9.5 20 9.5V9.5Z" stroke="#00FF1A" stroke-width="1.5" stroke-linecap="round" stroke-linejoin="round"/>
<path d="M2.49999 14.5H13.5" stroke="#00FF1A" stroke-width="1.5" stroke-linecap="round" stroke-linejoin="round"/>
<path fill-rule="evenodd" clip-rule="evenodd" d="M4.75 20H11.25C11.8467 20 12.419 19.7629 12.841 19.341C13.2629 18.919 13.5 18.3467 13.5 17.75V13.25C13.5 12.0074 12.4926 11 11.25 11H4.75C4.15326 11 3.58097 11.2371 3.15901 11.659C2.73705 12.081 2.5 12.6533 2.5 13.25V17.75C2.5 18.3467 2.73705 18.919 3.15901 19.341C3.58097 19.7629 4.15326 20 4.75 20Z" stroke="#00FF1A" stroke-width="1.5" stroke-linecap="round" stroke-linejoin="round"/>
</svg>
